# xmcd
#
# Track frame offsets: 
#        150
#        6341
#        16390
#        27343
#        93722
#        106842
#        122517
#        141267
#        158105
#        174828
#        191588
#        206342
#        257571
#        277665
#        298137
#        316136
#        339812
#        340262
#
# Disc length: 4618 seconds
#
# Revision: 0
# Processed by: cddbd v1.5.2PL0 Copyright (c) Steve Scherf et al.
# Submitted via: ExactAudioCopy v0.95b3
#
DISCID=f1120812
DTITLE=Jimi Hendrix  - The Old Barclay Box - Volume 2  FLAC
DYEAR=1900
DGENRE=
TTITLE0=And The Gods Made Love
TTITLE1=Have You Ever Been To Electric Ladyland
TTITLE2=Crosstown Traffic
TTITLE3=Voodoo Chile
TTITLE4=Little Miss Strange
TTITLE5=Long Hot Summer Night
TTITLE6=Come On (Part. 1)
TTITLE7=Gypsy Eyes
TTITLE8=Burning Of The Midnight Lamp
TTITLE9=Rainy Day Dream Away
TTITLE10=1983...A Merman I Should Turn To Be
TTITLE11=Moon, Turn The Tides...Gently, Gently Away
TTITLE12=Still Raining, Still Dreaming
TTITLE13=House Burning Down
TTITLE14=All Along The Watchtower
TTITLE15=Voodoo Child (Slight Return)
TTITLE16=And The Gods Made Love - Backwards
TTITLE17=And The Gods Made Love - Backwards
EXTD=
EXTT0=
EXTT1=
EXTT2=
EXTT3=
EXTT4=
EXTT5=
EXTT6=
EXTT7=
EXTT8=
EXTT9=
EXTT10=
EXTT11=
EXTT12=
EXTT13=
EXTT14=
EXTT15=
EXTT16=
EXTT17=
PLAYORDER=
